<?xml version="1.0" standalone="no"?>
<!DOCTYPE svg PUBLIC "-//W3C//DTD SVG 20010904//EN"
 "http://www.w3.org/TR/2001/REC-SVG-20010904/DTD/svg10.dtd">
<svg version="1.0" xmlns="http://www.w3.org/2000/svg"
 width="400.000000pt" height="400.000000pt" viewBox="0 0 400.000000 400.000000"
 preserveAspectRatio="xMidYMid meet">
<metadata>
Created by potrace 1.14, written by Peter Selinger 2001-2017
</metadata>
<g transform="translate(0.000000,400.000000) scale(0.100000,-0.100000)"
fill="#000000" stroke="none">
<path d="M2059 3815 c-3 -2 -16 -5 -31 -7 -42 -6 -112 -92 -112 -138 0 -8 -3
-17 -7 -20 -4 -3 -9 -23 -13 -45 -3 -22 -5 -40 -6 -41 0 0 -21 -1 -47 -1 -69
-2 -212 -12 -254 -18 -33 -5 -78 -11 -149 -19 -14 -2 -38 -6 -55 -10 -16 -3
-41 -9 -55 -12 -24 -5 -57 -12 -90 -19 -8 -2 -15 -4 -15 -5 0 -2 -38 -11 -52
-12 -7 -1 -13 -6 -13 -11 0 -6 -3 -8 -6 -5 -3 4 -17 0 -31 -7 -15 -8 -30 -12
-35 -9 -4 3 -8 0 -8 -5 0 -6 -7 -11 -15 -11 -30 0 -160 -87 -225 -150 -69 -66
-112 -125 -143 -192 -21 -45 -57 -154 -62 -188 -3 -14 -7 -36 -10 -50 -9 -42
-15 -109 -20 -204 -3 -50 -5 -91 -6 -91 -1 0 -2 -85 -4 -188 -2 -104 -6 -191
-8 -193 -3 -3 -14 -6 -26 -7 -11 -1 -21 -5 -21 -10 0 -4 -4 -5 -10 -2 -5 3
-10 1 -10 -4 0 -6 -4 -11 -10 -11 -16 0 -60 -42 -91 -87 -66 -95 -89 -227 -62
-358 8 -38 19 -71 24 -73 5 -2 9 -10 9 -17 0 -22 42 -87 80 -125 39 -39 108
-80 135 -80 9 0 23 -7 31 -15 9 -8 13 -15 11 -15 -4 0 1 -28 19 -95 3 -11 7
-31 10 -44 3 -13 9 -31 13 -40 5 -9 10 -20 10 -26 2 -17 11 -48 26 -85 13 -35
27 -71 30 -80 1 -3 8 -18 15 -35 7 -16 14 -32 14 -35 2 -9 51 -105 56 -110 5
-5 26 -41 45 -77 7 -13 15 -20 18 -16 4 3 7 0 7 -8 0 -30 140 -179 232 -246
58 -44 218 -136 218 -126 0 3 7 0 15 -7 8 -7 15 -10 15 -6 0 4 11 -1 24 -10
14 -8 29 -16 33 -16 9 -1 12 -1 81 -23 29 -9 56 -14 59 -11 3 3 11 2 18 -4 6
-5 29 -11 50 -14 22 -2 40 -5 40 -7 0 -1 16 -3 35 -4 19 -2 51 -6 70 -10 48
-10 348 -13 385 -4 17 4 55 10 85 14 61 8 80 11 125 20 43 10 48 11 67 19 9 4
22 9 30 10 65 13 233 87 288 126 16 12 30 19 30 16 0 -3 8 2 19 12 10 9 34 28
52 42 49 35 161 152 195 202 16 24 32 45 37 46 4 2 7 10 7 18 0 8 5 14 11 14
5 0 8 4 5 9 -4 5 -2 11 3 13 12 4 93 168 84 168 -5 0 -2 4 5 9 7 4 14 14 15
22 2 8 5 19 8 24 4 6 14 35 23 65 10 30 21 64 26 75 12 26 41 134 55 204 5 26
21 41 43 41 23 0 96 44 137 83 21 20 35 37 30 37 -5 0 1 10 12 23 27 29 67
123 58 136 -3 6 -2 11 2 11 11 0 16 37 15 120 0 80 -9 123 -39 189 -35 78
-137 170 -187 169 -18 0 -21 25 -21 201 0 100 -3 181 -6 181 -4 0 -3 18 1 40
4 22 5 42 1 45 -3 4 -6 25 -8 48 -1 23 -4 62 -8 87 -3 25 -8 59 -10 75 -2 17
-4 30 -5 30 -1 0 -3 9 -5 20 -12 77 -67 221 -89 237 -6 4 -8 8 -3 8 8 0 -37
64 -80 112 -37 42 -118 108 -132 108 -6 0 -11 3 -11 8 0 6 -85 56 -100 58 -3
0 -18 6 -35 13 -16 7 -45 19 -63 27 -18 8 -41 14 -52 14 -10 0 -22 5 -25 11
-4 6 -13 8 -21 5 -7 -3 -16 -1 -19 5 -4 5 -12 9 -18 8 -11 -2 -48 4 -112 18
-11 2 -31 6 -45 8 -14 2 -45 6 -70 10 -46 6 -89 11 -194 20 -32 2 -61 7 -64 9
-2 3 -15 1 -28 -4 -13 -5 -24 -6 -24 -2 0 5 -16 8 -35 7 -30 -2 -35 1 -41 28
-9 41 -12 127 -5 127 4 0 6 12 5 28 -1 15 -3 32 -3 39 -1 13 -35 35 -42 28z"/>
</g>
</svg>
